<svg width="196" height="25" viewBox="0 0 196 25" fill="none" xmlns="http://www.w3.org/2000/svg">
<g clip-path="url(#clip0_10_2198)">
<path d="M26 10C26 15.525 21.525 20 16 20C10.475 20 6 15.525 6 10C6 4.475 10.475 0 16 0C21.525 0 26 4.475 26 10ZM14.17 15.275C18.605 15.275 21.03 11.6 21.03 8.415C21.03 8.31 21.03 8.205 21.025 8.105C21.495 7.765 21.905 7.34 22.23 6.855C21.8 7.045 21.335 7.175 20.845 7.235C21.345 6.935 21.725 6.465 21.905 5.9C21.44 6.175 20.925 6.375 20.375 6.485C19.935 6.015 19.31 5.725 18.615 5.725C17.285 5.725 16.205 6.805 16.205 8.135C16.205 8.325 16.225 8.51 16.27 8.685C14.265 8.585 12.49 7.625 11.3 6.165C11.095 6.52 10.975 6.935 10.975 7.375C10.975 8.21 11.4 8.95 12.05 9.38C11.655 9.37 11.285 9.26 10.96 9.08C10.96 9.09 10.96 9.1 10.96 9.11C10.96 10.28 11.79 11.25 12.895 11.475C12.695 11.53 12.48 11.56 12.26 11.56C12.105 11.56 11.955 11.545 11.805 11.515C12.11 12.475 13 13.17 14.055 13.19C13.23 13.835 12.19 14.22 11.06 14.22C10.865 14.22 10.675 14.21 10.485 14.185C11.54 14.875 12.81 15.275 14.17 15.275Z" fill="white"/>
</g>
<g clip-path="url(#clip1_10_2198)">
<path d="M60 10C60 4.47656 55.5234 0 50 0C44.4766 0 40 4.47656 40 10C40 14.9922 43.6562 19.1289 48.4375 19.8789V12.8906H45.8984V10H48.4375V7.79688C48.4375 5.29102 49.9297 3.90625 52.2148 3.90625C53.3086 3.90625 54.4531 4.10156 54.4531 4.10156V6.5625H53.1914C51.9492 6.5625 51.5625 7.33398 51.5625 8.125V10H54.3359L53.8926 12.8906H51.5625V19.8789C56.3438 19.1289 60 14.9922 60 10Z" fill="white"/>
</g>
<g clip-path="url(#clip2_10_2198)">
<path d="M93.9805 5.88005C93.9336 4.81738 93.7617 4.0868 93.5156 3.45374C93.2616 2.78176 92.8709 2.18014 92.359 1.68002C91.8589 1.1721 91.2533 0.777435 90.5891 0.527447C89.9524 0.281274 89.2256 0.109427 88.163 0.0625732C87.0924 0.0117516 86.7525 0 84.0371 0C81.3217 0 80.9818 0.0117516 79.9152 0.0586052C78.8525 0.105459 78.122 0.277459 77.489 0.523479C76.8169 0.777435 76.2153 1.16814 75.7152 1.68002C75.2073 2.18014 74.8127 2.78573 74.5626 3.44992C74.3164 4.0868 74.1446 4.81341 74.0977 5.87609C74.0469 6.9467 74.0352 7.28658 74.0352 10.002C74.0352 12.7173 74.0469 13.0572 74.0938 14.1239C74.1406 15.1865 74.3126 15.9171 74.5588 16.5502C74.8127 17.2221 75.2073 17.8238 75.7152 18.3239C76.2153 18.8318 76.8209 19.2265 77.4851 19.4765C78.122 19.7226 78.8486 19.8945 79.9114 19.9413C80.9779 19.9883 81.3179 19.9999 84.0333 19.9999C86.7487 19.9999 87.0885 19.9883 88.1552 19.9413C89.2179 19.8945 89.9484 19.7226 90.5814 19.4765C91.9255 18.9568 92.9881 17.8941 93.5078 16.5502C93.7538 15.9133 93.9258 15.1865 93.9727 14.1239C94.0195 13.0572 94.0313 12.7173 94.0313 10.002C94.0313 7.28658 94.0273 6.9467 93.9805 5.88005ZM92.1794 14.0457C92.1364 15.0225 91.9723 15.5499 91.8356 15.9015C91.4995 16.7728 90.808 17.4643 89.9367 17.8004C89.5851 17.9372 89.0538 18.1012 88.0809 18.1441C87.026 18.1911 86.7096 18.2027 84.0411 18.2027C81.3726 18.2027 81.0522 18.1911 80.0011 18.1441C79.0244 18.1012 78.4969 17.9372 78.1453 17.8004C77.7117 17.6402 77.317 17.3862 76.9967 17.0541C76.6646 16.7298 76.4107 16.3391 76.2504 15.9055C76.1137 15.5539 75.9496 15.0225 75.9067 14.0497C75.8597 12.9948 75.8481 12.6783 75.8481 10.0097C75.8481 7.34122 75.8597 7.02087 75.9067 5.96995C75.9496 4.99319 76.1137 4.46575 76.2504 4.11412C76.4107 3.68038 76.6646 3.28586 77.0007 2.96536C77.3248 2.63327 77.7155 2.37931 78.1493 2.21921C78.5009 2.08247 79.0323 1.9184 80.0051 1.87537C81.06 1.82851 81.3765 1.81676 84.0449 1.81676C86.7174 1.81676 87.0338 1.82851 88.0848 1.87537C89.0616 1.9184 89.589 2.08247 89.9407 2.21921C90.3742 2.37931 90.7689 2.63327 91.0893 2.96536C91.4214 3.28967 91.6753 3.68038 91.8356 4.11412C91.9723 4.46575 92.1364 4.99701 92.1794 5.96995C92.2263 7.02484 92.238 7.34122 92.238 10.0097C92.238 12.6783 92.2263 12.9908 92.1794 14.0457Z" fill="white"/>
<path d="M84.0372 4.86414C81.2007 4.86414 78.8994 7.16531 78.8994 10.0018C78.8994 12.8384 81.2007 15.1395 84.0372 15.1395C86.8737 15.1395 89.1749 12.8384 89.1749 10.0018C89.1749 7.16531 86.8737 4.86414 84.0372 4.86414ZM84.0372 13.3345C82.197 13.3345 80.7044 11.8421 80.7044 10.0018C80.7044 8.16159 82.197 6.66915 84.0372 6.66915C85.8774 6.66915 87.3699 8.16159 87.3699 10.0018C87.3699 11.8421 85.8774 13.3345 84.0372 13.3345Z" fill="white"/>
<path d="M90.5777 4.66109C90.5777 5.32345 90.0406 5.86051 89.3781 5.86051C88.7157 5.86051 88.1787 5.32345 88.1787 4.66109C88.1787 3.99858 88.7157 3.46167 89.3781 3.46167C90.0406 3.46167 90.5777 3.99858 90.5777 4.66109Z" fill="white"/>
</g>
<g clip-path="url(#clip3_10_2198)">
<path d="M108 9.975C108 7.45 108 4.925 108 2.4C108 1.19 108.835 0.215 110.03 0.025C110.15 0.005 110.27 0 110.395 0C115.47 0 120.54 0 125.615 0C126.95 0 128 1.045 128 2.38C128 7.46 128 12.535 128 17.61C128 18.96 126.955 19.995 125.595 19.995C122.245 20 118.9 19.995 115.55 19.995C113.845 19.995 112.14 19.995 110.43 19.995C109.035 20 108 18.96 108 17.565C108 15.035 108 12.505 108 9.975ZM116.585 8.54C116.23 8.575 115.89 8.575 115.565 8.64C113.345 9.085 111.945 11.165 112.355 13.39C112.865 16.145 116.04 17.575 118.425 16.105C119.72 15.31 120.39 14.125 120.4 12.605C120.415 10.84 120.405 9.075 120.405 7.31C120.405 7.265 120.405 7.22 120.405 7.13C121.255 8.14 121.27 8.115 121.855 8.395C122.445 8.675 123.06 8.785 123.71 8.725C123.715 8.69 123.72 8.67 123.72 8.655C123.72 7.97 123.72 7.285 123.72 6.605C123.72 6.52 123.69 6.505 123.61 6.495C122.2 6.31 121.21 5.565 120.66 4.255C120.54 3.965 120.48 3.645 120.395 3.33C119.785 3.33 119.155 3.33 118.515 3.33C118.515 3.38 118.515 3.42 118.515 3.46C118.505 6.485 118.5 9.51 118.49 12.535C118.49 12.675 118.495 12.815 118.47 12.95C118.275 14.08 117.155 14.86 116.005 14.675C115.005 14.515 114.285 13.665 114.27 12.635C114.255 11.65 114.97 10.775 115.955 10.6C116.16 10.565 116.37 10.57 116.585 10.555C116.585 9.9 116.585 9.245 116.585 8.54Z" fill="white"/>
</g>
<g clip-path="url(#clip4_10_2198)">
<path d="M160.191 0H143.809C142.81 0 142 0.81 142 1.80916V18.1908C142 19.19 142.81 20 143.809 20H160.191C161.19 20 162 19.19 162 18.1908V1.80916C162 0.81 161.19 0 160.191 0ZM148.189 17.2693C148.189 17.5601 147.953 17.7958 147.662 17.7958H145.421C145.13 17.7958 144.895 17.5601 144.895 17.2693V7.8745C144.895 7.58372 145.13 7.34801 145.421 7.34801H147.662C147.953 7.34801 148.189 7.58372 148.189 7.8745V17.2693ZM146.542 6.46241C145.366 6.46241 144.413 5.50916 144.413 4.3333C144.413 3.15743 145.366 2.20419 146.542 2.20419C147.718 2.20419 148.671 3.15743 148.671 4.3333C148.671 5.50916 147.718 6.46241 146.542 6.46241ZM159.901 17.3117C159.901 17.5791 159.684 17.7958 159.417 17.7958H157.012C156.745 17.7958 156.528 17.5791 156.528 17.3117V12.905C156.528 12.2476 156.721 10.0243 154.81 10.0243C153.328 10.0243 153.027 11.5461 152.967 12.2291V17.3117C152.967 17.5791 152.75 17.7958 152.483 17.7958H150.157C149.889 17.7958 149.673 17.5791 149.673 17.3117V7.83209C149.673 7.56476 149.889 7.34801 150.157 7.34801H152.483C152.75 7.34801 152.967 7.56476 152.967 7.83209V8.65173C153.516 7.82696 154.333 7.19037 156.072 7.19037C159.923 7.19037 159.901 10.7881 159.901 12.7648V17.3117Z" fill="white"/>
</g>
<path d="M195.588 5.22052C195.357 4.36922 194.682 3.69815 193.825 3.46892C192.26 3.04346 186 3.04346 186 3.04346C186 3.04346 179.74 3.04346 178.175 3.45279C177.334 3.68178 176.642 4.36934 176.412 5.22052C176 6.77539 176 9.99998 176 9.99998C176 9.99998 176 13.2408 176.412 14.7795C176.643 15.6306 177.318 16.3017 178.175 16.5309C179.756 16.9565 186 16.9565 186 16.9565C186 16.9565 192.26 16.9565 193.825 16.5472C194.682 16.3181 195.357 15.647 195.588 14.7958C196 13.2408 196 10.0164 196 10.0164C196 10.0164 196.016 6.77539 195.588 5.22052ZM184.007 12.9789V7.02099L189.212 9.99998L184.007 12.9789Z" fill="white"/>
<defs>
<clipPath id="clip0_10_2198">
<rect width="20" height="20" fill="white" transform="translate(6)"/>
</clipPath>
<clipPath id="clip1_10_2198">
<rect width="20" height="20" fill="white" transform="translate(40)"/>
</clipPath>
<clipPath id="clip2_10_2198">
<rect width="20" height="20" fill="white" transform="translate(74)"/>
</clipPath>
<clipPath id="clip3_10_2198">
<rect width="20" height="20" fill="white" transform="translate(108)"/>
</clipPath>
<clipPath id="clip4_10_2198">
<rect width="20" height="20" fill="white" transform="translate(142)"/>
</clipPath>
</defs>
</svg>
